#define a42ede48c0ba42c7edaaa9f2d9d85e188TZIibUt1ovRdcnz_width 104
#define a42ede48c0ba42c7edaaa9f2d9d85e188TZIibUt1ovRdcnz_height 101
static char a42ede48c0ba42c7edaaa9f2d9d85e188TZIibUt1ovRdcnz_bits[] = {
  0x00, 0x00, 0x00, 0x00, 0x00, 0x00, 0x76, 0x00, 0x00, 0x00, 0x00, 0x00, 
  0x00, 0x00, 0x00, 0x00, 0x00, 0x00, 0xFC, 0xFF, 0x3F, 0x00, 0x00, 0x00, 
  0x00, 0x00, 0x00, 0x00, 0x00, 0x00, 0x80, 0xFF, 0xFF, 0xFF, 0x07, 0x00, 
  0x00, 0x00, 0x00, 0x00, 0x00, 0x00, 0x00, 0xF8, 0xFF, 0xFF, 0xFF, 0x5F, 
  0x00, 0x00, 0x00, 0x00, 0x00, 0x00, 0x00, 0x00, 0xFF, 0xFF, 0xDF, 0xFF, 
  0xFF, 0x00, 0x00, 0x00, 0x00, 0x00, 0x00, 0x00, 0xC0, 0xFF, 0x5F, 0x88, 
  0xFC, 0xFF, 0x07, 0x00, 0x00, 0x00, 0x00, 0x00, 0x00, 0xF0, 0xFF, 0x01, 
  0x00, 0x00, 0xFF, 0x0F, 0x00, 0x00, 0x00, 0x00, 0x00, 0x00, 0xF8, 0x1F, 
  0x00, 0x00, 0x00, 0xF0, 0x7F, 0x00, 0x00, 0x00, 0x00, 0x00, 0x00, 0xFE, 
  0x07, 0x01, 0x80, 0x00, 0xC0, 0xFF, 0x00, 0x00, 0x00, 0x00, 0x00, 0x80, 
  0xFF, 0x01, 0x00, 0x00, 0x00, 0x80, 0xFF, 0x01, 0x00, 0x00, 0x00, 0x00, 
  0xC0, 0x7F, 0x00, 0x00, 0x00, 0x00, 0x00, 0xFC, 0x07, 0x00, 0x00, 0x00, 
  0x00, 0xE0, 0x1F, 0x00, 0x20, 0x00, 0x00, 0x00, 0xF0, 0x0F, 0x00, 0x00, 
  0x00, 0x00, 0xF8, 0x17, 0x00, 0x00, 0x00, 0x00, 0x08, 0xE0, 0x3F, 0x00, 
  0x00, 0x00, 0x00, 0xF8, 0x03, 0x00, 0x00, 0x00, 0x10, 0x00, 0x80, 0x3F, 
  0x00, 0x00, 0x00, 0x00, 0xFE, 0x01, 0x00, 0x00, 0x00, 0x00, 0x00, 0x00, 
  0xFF, 0x00, 0x00, 0x00, 0x00, 0x7F, 0x00, 0x00, 0x00, 0x00, 0x00, 0x00, 
  0x00, 0xFC, 0x00, 0x00, 0x00, 0x80, 0x3F, 0x00, 0x01, 0x00, 0x00, 0x00, 
  0x00, 0x00, 0xF8, 0x01, 0x00, 0x00, 0xC0, 0x1F, 0x00, 0x00, 0x00, 0x40, 
  0x00, 0x00, 0x00, 0xF0, 0x07, 0x00, 0x00, 0xC0, 0x0F, 0x00, 0x00, 0x00, 
  0x08, 0x00, 0x00, 0x00, 0xE0, 0x07, 0x00, 0x00, 0xE0, 0x07, 0x00, 0x00, 
  0x00, 0x00, 0x00, 0x10, 0x00, 0xC0, 0x0F, 0x00, 0x00, 0xF0, 0x03, 0x00, 
  0x00, 0x00, 0x00, 0x00, 0x00, 0x00, 0xC2, 0x1F, 0x00, 0x00, 0xF8, 0x01, 
  0x00, 0x00, 0x08, 0x00, 0x00, 0x00, 0x00, 0x00, 0x3F, 0x00, 0x00, 0xFC, 
  0x00, 0x01, 0x00, 0x80, 0x00, 0x00, 0x00, 0x00, 0x00, 0x3E, 0x00, 0x00, 
  0xFC, 0x04, 0x00, 0x00, 0x00, 0x00, 0x04, 0x40, 0x40, 0x00, 0x7E, 0x00, 
  0x00, 0x7E, 0x00, 0x02, 0x00, 0x00, 0x20, 0x00, 0x00, 0x00, 0x00, 0xFC, 
  0x00, 0x00, 0x3E, 0x00, 0x00, 0x00, 0x00, 0x00, 0x00, 0x00, 0x00, 0x00, 
  0xF8, 0x00, 0x00, 0x3F, 0x00, 0x00, 0x10, 0x00, 0x00, 0x00, 0x00, 0x10, 
  0x00, 0xF8, 0x01, 0x00, 0x1F, 0x01, 0x00, 0x00, 0x00, 0x00, 0x00, 0x00, 
  0x00, 0x00, 0xF0, 0x01, 0x80, 0x0F, 0x00, 0x00, 0x00, 0x00, 0x00, 0x80, 
  0x00, 0x00, 0x00, 0xE0, 0x03, 0xC0, 0x0F, 0x00, 0x00, 0x00, 0x00, 0x00, 
  0x00, 0x00, 0x00, 0x00, 0xE0, 0x07, 0xC0, 0x07, 0x00, 0x00, 0x00, 0x20, 
  0x00, 0x00, 0x00, 0x00, 0x40, 0xE0, 0x07, 0xC0, 0x07, 0x00, 0x80, 0x16, 
  0x00, 0x00, 0x00, 0xB0, 0x02, 0x00, 0xC0, 0x07, 0xE0, 0x07, 0x00, 0xE0, 
  0x7F, 0x00, 0x00, 0x00, 0xFC, 0x07, 0x00, 0x80, 0x0F, 0xE0, 0x03, 0x00, 
  0xF0, 0xFF, 0x01, 0x00, 0x80, 0xFF, 0x1F, 0x00, 0x80, 0x0F, 0xF0, 0x03, 
  0x00, 0xFA, 0xFF, 0x03, 0x00, 0x80, 0xFF, 0x7F, 0x00, 0xC0, 0x0F, 0xF0, 
  0x01, 0x00, 0xFC, 0xFF, 0x07, 0x00, 0xC0, 0xFF, 0x7F, 0x00, 0x00, 0x1F, 
  0xF0, 0x01, 0x02, 0xFE, 0xF2, 0x0F, 0x00, 0xC0, 0x2F, 0xFE, 0x00, 0x80, 
  0x1F, 0xF0, 0x00, 0x00, 0x3F, 0x80, 0x0F, 0x00, 0xF0, 0x07, 0xF8, 0x01, 
  0x00, 0x3F, 0xF8, 0x00, 0x00, 0x1F, 0x80, 0x1F, 0x00, 0xF0, 0x03, 0xF8, 
  0x09, 0x00, 0x1E, 0xF8, 0x00, 0x80, 0x1F, 0x00, 0x1F, 0x40, 0xF0, 0x01, 
  0xF0, 0x01, 0x00, 0x3E, 0xF8, 0x00, 0x80, 0x0F, 0x00, 0x1F, 0x00, 0xF0, 
  0x01, 0xE0, 0x03, 0x00, 0x3E, 0x78, 0x00, 0x80, 0x0F, 0x00, 0x3E, 0x00, 
  0xF8, 0x00, 0xE0, 0x03, 0x00, 0x3C, 0x78, 0x40, 0x80, 0x0F, 0x00, 0x3E, 
  0x00, 0xF8, 0x00, 0xE0, 0x03, 0x00, 0x7E, 0x7C, 0x00, 0x80, 0x07, 0x00, 
  0x1E, 0x08, 0xF8, 0x08, 0xE0, 0x03, 0x00, 0x3C, 0x7C, 0x00, 0x00, 0x27, 
  0x00, 0x1C, 0x00, 0x70, 0x00, 0xE0, 0x01, 0x00, 0x7C, 0x7C, 0x80, 0x00, 
  0x00, 0x00, 0x00, 0x00, 0x00, 0x00, 0x00, 0x00, 0x00, 0x7C, 0x3C, 0x00, 
  0x00, 0x00, 0x00, 0x00, 0x00, 0x00, 0x00, 0x00, 0x00, 0x01, 0x78, 0x7C, 
  0x00, 0x00, 0x00, 0x08, 0x00, 0x00, 0x00, 0x00, 0x00, 0x00, 0x00, 0x7C, 
  0x7C, 0x00, 0x00, 0x00, 0x00, 0x00, 0x00, 0x00, 0x00, 0x00, 0x00, 0x00, 
  0x7C, 0x3C, 0x00, 0x00, 0x00, 0x00, 0x00, 0x00, 0x00, 0x01, 0x00, 0x00, 
  0x00, 0x78, 0x3C, 0x00, 0x08, 0x00, 0x00, 0x00, 0x00, 0x04, 0x00, 0x00, 
  0x01, 0x00, 0x7C, 0x3C, 0x00, 0x00, 0x00, 0x00, 0x00, 0x00, 0x00, 0x00, 
  0x00, 0x00, 0x00, 0x7C, 0x7C, 0x00, 0x00, 0x00, 0x04, 0x40, 0x00, 0x00, 
  0x00, 0x00, 0x00, 0x00, 0x78, 0x3C, 0x40, 0x00, 0x00, 0x00, 0x00, 0x00, 
  0x00, 0x00, 0x04, 0x00, 0x04, 0x7C, 0x7C, 0x00, 0x00, 0x00, 0x00, 0x00, 
  0x01, 0x01, 0x00, 0x00, 0x00, 0x00, 0x7C, 0x7C, 0x00, 0x00, 0x01, 0x80, 
  0x00, 0x00, 0x00, 0x00, 0x00, 0x00, 0x40, 0x78, 0x7C, 0x00, 0x00, 0x00, 
  0x00, 0x00, 0x00, 0x00, 0x00, 0x00, 0x00, 0x00, 0x7C, 0x7C, 0x00, 0x04, 
  0x00, 0x00, 0x00, 0x08, 0x00, 0x00, 0x00, 0x00, 0x00, 0x7C, 0x7C, 0x00, 
  0x00, 0x00, 0x00, 0x00, 0x00, 0x00, 0x00, 0x00, 0x00, 0x00, 0x3C, 0x78, 
  0x40, 0x00, 0x40, 0x00, 0x00, 0x00, 0x00, 0x10, 0x0A, 0x00, 0x00, 0x3C, 
  0x78, 0x00, 0x00, 0xE0, 0x41, 0x00, 0x00, 0x00, 0x00, 0x0F, 0x10, 0x00, 
  0x3E, 0xF8, 0x00, 0x00, 0xE0, 0x01, 0x02, 0x00, 0x00, 0x80, 0x0F, 0x00, 
  0x00, 0x3E, 0xF8, 0x00, 0x00, 0xE8, 0x03, 0x00, 0x00, 0x00, 0x80, 0x1F, 
  0x00, 0x00, 0x3E, 0xF0, 0x00, 0x00, 0xE0, 0x07, 0x00, 0x00, 0x08, 0x80, 
  0x0F, 0x00, 0x10, 0x1E, 0xF0, 0x01, 0x00, 0xE0, 0x07, 0x00, 0x00, 0x00, 
  0xC0, 0x0F, 0x00, 0x00, 0x1F, 0xF0, 0x01, 0x00, 0xE0, 0x0F, 0x40, 0x00, 
  0x00, 0xE0, 0x07, 0x00, 0x00, 0x1F, 0xF0, 0x01, 0x00, 0x80, 0x0F, 0x00, 
  0x00, 0x08, 0xF0, 0x03, 0x80, 0x80, 0x1F, 0xE0, 0x03, 0x00, 0x80, 0x3F, 
  0x00, 0x00, 0x00, 0xF4, 0x03, 0x00, 0x80, 0x0F, 0xE0, 0x03, 0x00, 0x00, 
  0x7F, 0x00, 0x00, 0x00, 0xFC, 0x01, 0x00, 0x80, 0x0F, 0xE0, 0x07, 0x20, 
  0x00, 0xFE, 0x00, 0x00, 0x00, 0xFE, 0x02, 0x00, 0xC1, 0x0F, 0xC0, 0x07, 
  0x00, 0x00, 0xFE, 0x03, 0x00, 0x80, 0x7F, 0x00, 0x00, 0xC0, 0x07, 0xC0, 
  0x0F, 0x00, 0x00, 0xF8, 0x07, 0x04, 0xC0, 0x3F, 0x00, 0x00, 0xC0, 0x03, 
  0x80, 0x0F, 0x00, 0x00, 0xF0, 0x7F, 0x00, 0xF4, 0x1F, 0x00, 0x00, 0xE0, 
  0x03, 0x80, 0x0F, 0x00, 0x00, 0xE0, 0xFF, 0x7F, 0xFF, 0x0F, 0x00, 0x00, 
  0xF0, 0x03, 0x00, 0x1F, 0x00, 0x08, 0x80, 0xFF, 0xFF, 0xFF, 0x03, 0x00, 
  0x00, 0xF0, 0x01, 0x00, 0x3F, 0x00, 0x00, 0x00, 0xFE, 0xFF, 0xFF, 0x00, 
  0x00, 0x00, 0xF8, 0x00, 0x00, 0x7E, 0x02, 0x00, 0x00, 0xF4, 0xFF, 0x3F, 
  0x40, 0x00, 0x00, 0xFC, 0x00, 0x00, 0x7C, 0x00, 0x00, 0x02, 0x80, 0xFF, 
  0x03, 0x00, 0x00, 0x01, 0x7C, 0x00, 0x00, 0xFC, 0x00, 0x00, 0x00, 0x00, 
  0x00, 0x00, 0x00, 0x00, 0x00, 0x7E, 0x00, 0x00, 0xF8, 0x01, 0x01, 0x00, 
  0x00, 0x00, 0x00, 0x00, 0x10, 0x00, 0x3F, 0x00, 0x00, 0xF0, 0x03, 0x00, 
  0x00, 0x10, 0x00, 0x00, 0x00, 0x00, 0x80, 0x1F, 0x00, 0x00, 0xF0, 0x03, 
  0x00, 0x00, 0x08, 0x00, 0x00, 0x00, 0x00, 0xC0, 0x1F, 0x00, 0x00, 0xE0, 
  0x07, 0x00, 0x00, 0x00, 0x00, 0x00, 0x00, 0x01, 0xC0, 0x0F, 0x00, 0x00, 
  0xC0, 0x1F, 0x20, 0x00, 0x00, 0x00, 0x00, 0x08, 0x00, 0xF0, 0x07, 0x00, 
  0x00, 0x80, 0x3F, 0x00, 0x00, 0x00, 0x00, 0x80, 0x00, 0x00, 0xF0, 0x03, 
  0x00, 0x00, 0x00, 0x3F, 0x00, 0x00, 0x00, 0x04, 0x00, 0x00, 0x00, 0xFC, 
  0x01, 0x00, 0x00, 0x00, 0xFE, 0x00, 0x04, 0x00, 0x00, 0x00, 0x00, 0x00, 
  0xFF, 0x00, 0x00, 0x00, 0x00, 0xFC, 0x03, 0x00, 0x00, 0x40, 0x00, 0x00, 
  0x00, 0x7F, 0x00, 0x00, 0x00, 0x00, 0xF8, 0x03, 0x00, 0x00, 0x00, 0x00, 
  0x40, 0xC0, 0x3F, 0x00, 0x00, 0x00, 0x00, 0xF0, 0x1F, 0x00, 0x00, 0x00, 
  0x00, 0x00, 0xE8, 0x1F, 0x00, 0x00, 0x00, 0x00, 0xE0, 0x1F, 0x00, 0x02, 
  0x00, 0x00, 0x00, 0xF8, 0x0F, 0x00, 0x00, 0x00, 0x00, 0x80, 0xFF, 0x00, 
  0x00, 0x00, 0x00, 0x00, 0xFC, 0x03, 0x00, 0x00, 0x00, 0x00, 0x00, 0xFF, 
  0x03, 0x00, 0x00, 0x02, 0x80, 0xFF, 0x01, 0x00, 0x00, 0x00, 0x00, 0x00, 
  0xFC, 0x1F, 0x00, 0x00, 0x00, 0xE0, 0x7F, 0x00, 0x00, 0x00, 0x00, 0x00, 
  0x00, 0xF8, 0x3F, 0x00, 0x00, 0x00, 0xFC, 0x3F, 0x00, 0x00, 0x00, 0x00, 
  0x00, 0x00, 0xE0, 0xFF, 0x27, 0x80, 0xA0, 0xFF, 0x0F, 0x00, 0x00, 0x00, 
  0x00, 0x00, 0x00, 0x80, 0xFF, 0x7F, 0x55, 0xFD, 0xFF, 0x03, 0x00, 0x00, 
  0x00, 0x00, 0x00, 0x00, 0x00, 0xFC, 0xFF, 0xFF, 0xFF, 0x7F, 0x00, 0x00, 
  0x00, 0x00, 0x00, 0x00, 0x00, 0x00, 0xF0, 0xFF, 0xFF, 0xFF, 0x0F, 0x00, 
  0x00, 0x00, 0x00, 0x00, 0x00, 0x00, 0x00, 0x00, 0xFF, 0xFF, 0xFF, 0x02, 
  0x00, 0x00, 0x00, 0x00, 0x00, 0x00, 0x00, 0x00, 0x00, 0xD0, 0xFF, 0x0B, 
  0x00, 0x00, 0x00, 0x00, 0x00, };
